<?xml version="1.0" encoding="utf-8"?>
<!-- Generator: Adobe Illustrator 22.1.0, SVG Export Plug-In . SVG Version: 6.00 Build 0)  -->
<svg version="1.1" id="Calque_1" xmlns="http://www.w3.org/2000/svg" xmlns:xlink="http://www.w3.org/1999/xlink" x="0px" y="0px"
	 viewBox="0 0 2812 825.3" style="enable-background:new 0 0 2812 825.3;" xml:space="preserve">
<style type="text/css">
	.st0{fill:#1B6494;}
</style>
<g transform="scale(4.584912957360272) translate(10, 10)">
	<g id="SvgjsG1023" transform="matrix(1,0,0,1,0,0)">
	</g>
	<g id="SvgjsG1024" transform="matrix(1.6666666666666667,0,0,1.6666666666666667,50,30)">
		<g>
			<ellipse class="st0" cx="1.6" cy="30" rx="5.5" ry="5.4"/>
			<path class="st0" d="M31.6,30c0-16.5-13.5-30-30-30s-30,13.5-30,30s13.4,30,30,30c5.4,0,10.5-1.5,14.9-4c0.9,0.6,1.9,0.9,3,0.9
				c3,0,5.5-2.4,5.5-5.4c0-0.8-0.2-1.5-0.5-2.2C28.9,44.1,31.6,37.3,31.6,30z M-25.6,30c0-15,12.2-27.2,27.2-27.2S28.8,15,28.8,30
				c0,6.5-2.3,12.4-6.1,17.1c-0.9-0.7-2-1.1-3.2-1.1c-3,0-5.5,2.4-5.5,5.4c0,0.9,0.2,1.7,0.6,2.4c-3.9,2.1-8.3,3.3-13.1,3.3
				C-13.4,57.2-25.6,45-25.6,30z			">
<animateTransform  accumulate="none" additive="replace" attributeName="transform" calcMode="linear" dur="8s" fill="remove" from="0 1.6 30" repeatCount="indefinite" restart="always" to="360 1.6 30" type="rotate">
					</animateTransform>
			</path>
			<ellipse class="st0" cx="-16.2" cy="8.6" rx="5.5" ry="5.4">
			
				<animateTransform  accumulate="none" additive="replace" attributeName="transform" calcMode="linear" dur="8s" fill="remove" from="0 1.6 30" repeatCount="indefinite" restart="always" to="360 1.6 30" type="rotate">
				</animateTransform>
			</ellipse>
		</g>
	</g>
	<g id="SvgjsG1025" transform="matrix(3.9999994913737624,0,0,3.9999994913737624,193.52000128173813,30.00001017252475)">
		<path class="st0" d="M-1.4,5C-1,5-0.7,5.3-0.7,5.7v13.4c0,0.4-0.3,0.7-0.7,0.7h-1.8c-0.2,0-0.4-0.1-0.6-0.3l-9.7-13.4
			c-0.2-0.2-0.2-0.5-0.1-0.7C-13.5,5.2-13.2,5-13,5h1.8c0.2,0,0.4,0.1,0.6,0.3l7,9.5V5.7C-3.6,5.3-3.3,5-2.9,5H-1.4L-1.4,5z
			 M-11.5,14.7c0.4,0,0.7,0.3,0.7,0.7v3.7c0,0.4-0.3,0.7-0.7,0.7H-13c-0.4,0-0.7-0.3-0.7-0.7v-3.7c0-0.4,0.3-0.7,0.7-0.7L-11.5,14.7
			L-11.5,14.7z M13,5c0.4,0,0.7,0.3,0.7,0.7v1.4c0,0.4-0.3,0.7-0.7,0.7H5.4v3.1h6.7c0.4,0,0.7,0.3,0.7,0.7v1.5
			c0,0.4-0.3,0.7-0.7,0.7H5.4v3.1H13c0.4,0,0.7,0.3,0.7,0.7V19c0,0.4-0.3,0.7-0.7,0.7H3.2c-0.4,0-0.7-0.3-0.7-0.7V5.7
			C2.5,5.3,2.8,5,3.2,5H13L13,5z M22.7,5c2.2,0,4,0.7,5.4,2.2c1.4,1.4,2.1,3.2,2.1,5.3s-0.7,3.9-2.1,5.3c-1.4,1.5-3.2,2.2-5.4,2.2
			s-4-0.7-5.4-2.2c-1.4-1.4-2.1-3.2-2.1-5.3s0.7-3.9,2.1-5.3C18.7,5.7,20.5,5,22.7,5L22.7,5z M22.7,17.1c1.4,0,2.5-0.4,3.3-1.3
			s1.2-2,1.2-3.3s-0.4-2.4-1.2-3.3c-0.8-0.9-1.9-1.3-3.3-1.3c-1.4,0-2.5,0.4-3.3,1.3c-0.8,0.9-1.2,2-1.2,3.3s0.4,2.5,1.2,3.3
			C20.2,16.7,21.3,17.1,22.7,17.1z M39.3,5c1.6,0,2.9,0.5,3.8,1.4c1,0.9,1.5,2.2,1.5,3.7s-0.5,2.7-1.5,3.7c-1,0.9-2.3,1.3-3.8,1.3
			h-3.8v4.1c0,0.4-0.3,0.7-0.7,0.7h-1.5c-0.4,0-0.7-0.3-0.7-0.7V13c0-0.4,0.3-0.7,0.7-0.7h5.9c0.9,0,1.5-0.2,1.9-0.6
			c0.4-0.4,0.6-0.9,0.6-1.6s-0.2-1.2-0.6-1.6c-0.4-0.4-1-0.6-1.9-0.6h-5.9c-0.4,0-0.7-0.3-0.7-0.7V5.7c0-0.4,0.3-0.7,0.7-0.7
			C33.2,5,39.3,5,39.3,5z M56.1,16.8c0.4,0,0.7,0.3,0.7,0.7V19c0,0.4-0.3,0.7-0.7,0.7h-8.7c-0.4,0-0.7-0.3-0.7-0.7V5.7
			C46.7,5.3,47,5,47.4,5h1.5c0.4,0,0.7,0.3,0.7,0.7v11.1H56.1L56.1,16.8z M66.1,5.4l5.6,13.2c0.1,0.1,0.1,0.2,0.1,0.3
			c0,0.4-0.3,0.7-0.7,0.7l0,0h-1.7c-0.3,0-0.5-0.2-0.6-0.4l-1.5-3.4h-5.7l-1.4,3.4c-0.1,0.3-0.4,0.4-0.6,0.4h-1.7
			c-0.2,0-0.5-0.1-0.6-0.3c-0.1-0.2-0.2-0.4-0.1-0.6l5.6-13.3C63,5.2,63.3,5,63.5,5h1.9C65.7,5,66,5.2,66.1,5.4L66.1,5.4z M64.5,9.1
			l-1.7,4h3.3L64.5,9.1z M78,8.2c-0.5,0.2-1,0.5-1.3,1c-0.8,0.8-1.1,1.9-1.1,3.3s0.4,2.5,1.1,3.3c0.8,0.9,1.9,1.3,3.4,1.3
			c0.8,0,1.5-0.2,2.1-0.6s1.1-0.9,1.4-1.6c0.1-0.3,0.4-0.4,0.6-0.4h1.6c0.2,0,0.4,0.1,0.6,0.3c0.1,0.2,0.2,0.4,0.1,0.6
			c-0.5,1.4-1.3,2.5-2.4,3.3c-1.2,0.9-2.6,1.3-4.2,1.3c-2.1,0-3.9-0.7-5.2-2.2c-1.2-1.4-1.9-3.2-1.9-5.3s0.6-3.9,1.9-5.3
			C75.9,5.7,77.6,5,79.8,5c1.6,0,3,0.4,4.2,1.3c1.1,0.8,1.9,1.9,2.4,3.3c0.1,0.2,0,0.5-0.1,0.6c-0.1,0.2-0.3,0.3-0.6,0.3h-1.6
			c-0.3,0-0.5-0.2-0.6-0.4c-0.3-0.7-0.7-1.2-1.4-1.6c-0.6-0.4-1.3-0.6-2.1-0.6C79.2,7.9,78.5,8,78,8.2L78,8.2z M99.2,5
			c0.4,0,0.7,0.3,0.7,0.7v1.4c0,0.4-0.3,0.7-0.7,0.7h-7.6v3.1h6.7c0.4,0,0.7,0.3,0.7,0.7v1.5c0,0.4-0.3,0.7-0.7,0.7h-6.7v3.1h7.6
			c0.4,0,0.7,0.3,0.7,0.7V19c0,0.4-0.3,0.7-0.7,0.7h-9.8c-0.4,0-0.7-0.3-0.7-0.7V5.7C88.7,5.3,89,5,89.4,5H99.2L99.2,5z"/>
	</g>
</g>
</svg>
